<svg width="17" height="17" viewBox="0 0 17 17" fill="none" xmlns="http://www.w3.org/2000/svg">
<g clip-path="url(#clip0_1169_1186)">
<path d="M1.00342 5.75375C1.0268 5.25957 1.12342 4.76691 1.29541 4.29333L1.00342 5.75375ZM1.00342 5.75375C1.0085 5.53772 1.02701 5.38017 1.06631 5.14865C1.36269 3.40289 2.5741 1.94094 4.25485 1.3099C4.55929 1.1956 4.85542 1.11765 5.2354 1.05943C3.80514 1.29312 2.59967 2.0695 1.8067 3.27295L2.22422 3.54805L1.8067 3.27295C1.63716 3.53026 1.4018 4.00036 1.29542 4.29331L1.00342 5.75375ZM15.9811 8.12533C15.9613 8.3042 15.9278 8.47894 15.881 8.64186M15.9811 8.12533L15.881 8.64186C15.881 8.64186 15.881 8.64186 15.881 8.64186M15.9811 8.12533C15.9183 8.61589 15.7376 9.12077 15.4752 9.52801C15.6512 9.25935 15.789 8.96176 15.881 8.64186M15.9811 8.12533L15.881 8.64186M4.9351 10.8855C4.93013 10.8846 4.92489 10.8837 4.91937 10.8826C4.86013 10.8715 4.7858 10.8542 4.70046 10.8311C4.52962 10.7849 4.33119 10.7198 4.14746 10.6474C2.69655 10.0753 1.56202 8.80363 1.16938 7.31643L4.9351 10.8855ZM4.9351 10.8855C4.90719 10.8776 4.87284 10.8687 4.82992 10.8582L4.8299 10.8582C4.22998 10.7123 3.66209 10.4603 3.16084 10.1157C3.16084 10.1157 3.16083 10.1157 3.16083 10.1157L3.44404 9.70368L4.9351 10.8855ZM1.81734 8.7423L2.23542 8.46805L1.16938 7.31642C1.06773 6.93137 1.02934 6.71991 1.01296 6.38081C1.07765 7.21317 1.34918 8.02863 1.81734 8.7423ZM6.19532 1.01279C5.90496 1.00578 5.56229 1.017 5.33797 1.04448C5.43535 1.03097 5.53832 1.01857 5.64824 1.00703L5.64806 1.00705C5.64807 1.00706 5.65173 1.00672 5.66015 1.00627C5.66914 1.00579 5.68104 1.00533 5.69606 1.00494C5.72622 1.00415 5.76441 1.0038 5.80935 1.00394C5.89908 1.00421 6.00849 1.00642 6.12099 1.01014C6.14606 1.01096 6.17088 1.01185 6.19532 1.01279ZM6.46631 1.02633C6.54754 1.03152 6.61137 1.03697 6.64701 1.04194L6.64702 1.04194C7.42653 1.15058 8.0997 1.4023 8.73632 1.82043L8.73632 1.82044C9.64469 2.41704 10.355 3.32049 10.6992 4.30683C10.6992 4.30683 10.6992 4.30683 10.6992 4.30684L10.7571 4.47225C10.7571 4.47231 10.7571 4.47237 10.7572 4.47243C10.7572 4.47245 10.7572 4.47247 10.7572 4.47249C10.7727 4.51598 10.8152 4.61963 10.9227 4.70506C11.0451 4.80236 11.1802 4.8212 11.2752 4.81515C11.356 4.81 11.4177 4.78684 11.4423 4.77715C11.4718 4.76549 11.4968 4.75293 11.5115 4.74531C11.5098 4.7462 11.5089 4.74667 11.5089 4.74671C11.509 4.74689 11.5255 4.73955 11.5669 4.72446C11.61 4.70873 11.6647 4.6901 11.7241 4.67097C11.8469 4.63149 11.9687 4.59668 12.036 4.58166C12.6799 4.43781 13.3572 4.49132 13.9565 4.73068L14.1407 4.26963L13.9565 4.73068C14.9791 5.13906 15.7292 6.04047 15.9439 7.11781C15.9706 7.25161 15.9881 7.39215 15.9965 7.53545C15.9167 6.50512 15.4 5.61433 14.5414 5.03969C13.4839 4.33186 12.0926 4.32763 11.0084 5.01473C10.9656 5.04183 10.9384 5.05792 10.9195 5.06803C10.9178 5.06895 10.9162 5.06978 10.9148 5.07053C10.9135 5.07048 10.9121 5.07042 10.9106 5.07035C10.9082 5.06318 10.9055 5.05422 10.9023 5.04312C10.8927 5.00956 10.8812 4.96464 10.8659 4.90073C10.7586 4.4522 10.6529 4.15154 10.4668 3.77821C10.1165 3.07534 9.62919 2.48828 9.00201 2.01309C8.72488 1.8031 8.52181 1.6801 8.18397 1.51464C8.18397 1.51464 8.18397 1.51464 8.18397 1.51463L6.46631 1.02633ZM15.3108 9.75661C15.3111 9.75615 15.3115 9.7557 15.3119 9.75525C14.7857 10.4243 14.0046 10.8746 13.1126 10.9814L13.1126 10.9814C13.0426 10.9898 12.8328 10.9968 12.5893 10.999C13.1226 10.9929 13.3886 10.9583 13.7759 10.8316L13.7759 10.8316C14.3659 10.6385 14.9117 10.2527 15.3108 9.75661L14.9212 9.44321L15.3108 9.75661ZM11.932 10.9876C11.9321 10.9876 11.9338 10.9878 11.9367 10.9882C11.9334 10.9878 11.932 10.9876 11.932 10.9876ZM4.98946 10.8903L4.98951 10.8904L4.98946 10.8903ZM9.34903 10.8592L8.5696 10.0822C8.6002 10.1112 8.63601 10.1456 8.67783 10.1861C8.88165 10.3836 9.20971 10.7093 9.73514 11.2343C10.0677 11.5666 10.3756 11.8768 10.6121 12.1174C10.5052 12.0115 10.3732 11.8801 10.209 11.7164L9.34903 10.8592ZM11.0472 12.5677C11.0529 12.5743 11.0512 12.5728 11.0454 12.5656C11.0463 12.5667 11.0469 12.5673 11.0472 12.5677ZM8.43305 9.95801C8.4334 9.95829 8.43395 9.95872 8.43471 9.95933C8.43029 9.95615 8.42953 9.95529 8.43305 9.95801ZM8.16879 10.3379C8.26953 10.2389 8.35698 10.1534 8.42647 10.0862L7.65105 10.8592L6.79105 11.7164C6.6581 11.849 6.54626 11.9603 6.45177 12.0541C6.68495 11.8177 6.97047 11.5304 7.25689 11.2439C7.58688 10.9138 7.91709 10.5855 8.16879 10.3379Z" fill="#EEF2F6" stroke="#EEF2F6"/>
</g>
<defs>
<clipPath id="clip0_1169_1186">
<rect width="16" height="16" fill="white" transform="translate(0.5 0.5)"/>
</clipPath>
</defs>
</svg>
