<svg width="16" height="16" viewBox="0 0 16 16" fill="none" xmlns="http://www.w3.org/2000/svg">
<path d="M2.85713 9.14279L0.822845 12.0571C0.731083 12.2358 0.688049 12.4355 0.698081 12.6362C0.708114 12.8368 0.770857 13.0313 0.879988 13.1999C0.982925 13.3646 1.12614 13.5004 1.29611 13.5944C1.46608 13.6883 1.65719 13.7375 1.85142 13.7371H14.1486C14.3428 13.7375 14.5339 13.6883 14.7039 13.5944C14.8738 13.5004 15.0171 13.3646 15.12 13.1999C15.2203 13.0262 15.2731 12.8291 15.2731 12.6285C15.2731 12.4279 15.2203 12.2308 15.12 12.0571L13.1428 9.14279M2.85713 9.14279V3.4285C2.85713 3.1254 2.97754 2.83471 3.19187 2.62038C3.40619 2.40605 3.69688 2.28564 3.99999 2.28564H12C12.3031 2.28564 12.5938 2.40605 12.8081 2.62038C13.0224 2.83471 13.1428 3.1254 13.1428 3.4285V9.14279M2.85713 9.14279H13.1428" stroke="#CDD5DF" stroke-linecap="round" stroke-linejoin="round"/>
</svg>
