<svg display="block" margin="auto" width="15" height="20" viewBox="0 0 15 16" fill="none" xmlns="http://www.w3.org/2000/svg">
  <style>
    .icon-path {
      stroke: #EEF2F6;
    }

    @media (prefers-color-scheme: light) {
      .icon-path {
        stroke: #0D121C;
      }
    }
  </style>
  <path class="icon-path" d="M12.4829 6.66295H9.63717C9.55966 6.66293 9.48292 6.67838 9.41145 6.70838C9.33998 6.73839 9.27521 6.78234 9.22093 6.83768C9.16666 6.89302 9.12397 6.95863 9.09536 7.03067C9.06675 7.10271 9.05279 7.17973 9.05431 7.25723V8.86866C9.05431 9.02324 9.11572 9.1715 9.22503 9.2808C9.33434 9.39011 9.48259 9.45152 9.63717 9.45152H11.1115C11.1197 9.89325 11.0348 10.3318 10.8621 10.7384C10.6895 11.1451 10.433 11.5108 10.1095 11.8117C9.78595 12.1126 9.40262 12.3419 8.9845 12.4846C8.56638 12.6274 8.12286 12.6803 7.68288 12.6401C5.12289 12.6401 3.8886 10.4687 3.8886 8.00009C3.8886 5.53152 5.21431 3.36009 7.68288 3.36009C8.77271 3.32393 9.84061 3.6718 10.7 4.34295C10.7687 4.3879 10.8465 4.41721 10.9277 4.42878C11.009 4.44036 11.0918 4.43393 11.1703 4.40994C11.2488 4.38595 11.3211 4.34499 11.382 4.28996C11.443 4.23494 11.4911 4.16719 11.5229 4.09152L12.2429 2.4458C12.3021 2.32451 12.3174 2.18641 12.2861 2.0551C12.2549 1.92379 12.179 1.8074 12.0715 1.7258C10.7609 0.942144 9.25513 0.545885 7.7286 0.582947C3.5686 0.571519 0.734314 3.8058 0.734314 8.00009C0.734314 12.1944 3.58003 15.4287 7.68288 15.4287C11.7857 15.4287 14.2657 12.5029 14.2657 8.57152C14.2657 7.31438 13.7629 6.66295 12.4829 6.66295Z" stroke-linecap="round" stroke-linejoin="round"/>
</svg>
