<svg width="32" height="32" viewBox="0 0 32 32" fill="none" xmlns="http://www.w3.org/2000/svg">
  <style>
    .icon-path {
      stroke: #EEF2F6;
    }

    

    @media (prefers-color-scheme: light) {
      .icon-path {
        stroke: #0D121C;
      }
    }
  </style>
<path class="icon-path" d="M8.5 15.8333H10.8333C11.0308 15.8334 11.2239 15.775 11.3882 15.6655C11.5525 15.556 11.6807 15.4003 11.7567 15.218L13.49 11.1413C13.5296 11.0482 13.5965 10.9692 13.6819 10.915C13.7673 10.8607 13.8672 10.8336 13.9684 10.8372C14.0695 10.8409 14.1672 10.8752 14.2484 10.9356C14.3296 10.996 14.3906 11.0796 14.4233 11.1753L17.5793 20.992C17.612 21.0878 17.673 21.1714 17.7543 21.2317C17.8355 21.2921 17.9332 21.3264 18.0343 21.3301C18.1354 21.3338 18.2353 21.3067 18.3207 21.2524C18.4062 21.1981 18.4731 21.1191 18.5127 21.026L20.2427 16.4487C20.3186 16.2664 20.4468 16.1107 20.6112 16.0012C20.7755 15.8917 20.9685 15.8333 21.166 15.8333H23.4993" stroke="#EEF2F6" stroke-linecap="round" stroke-linejoin="round"/>
</svg>
