<svg width="32" height="32" viewBox="0 0 32 32" fill="none" xmlns="http://www.w3.org/2000/svg">
  <style>
    .icon-path {
      stroke: #EEF2F6;
    }

    

    @media (prefers-color-scheme: light) {
      .icon-path {
        stroke: #0D121C;
      }
    }
  </style>
<path class="icon-path" d="M14.2858 22.0913C14.3846 22.4707 14.6065 22.8067 14.9167 23.0465C15.227 23.2863 15.608 23.4164 16.0001 23.4164C16.3922 23.4164 16.7732 23.2863 17.0835 23.0465C17.3937 22.8067 17.6156 22.4707 17.7144 22.0913M16.0001 8.57129C17.3004 8.57129 18.5475 9.08784 19.4669 10.0073C20.3864 10.9268 20.903 12.1738 20.903 13.4741C20.903 18.9256 22.8915 19.9999 23.4287 19.9999H8.57153C9.1201 19.9999 11.0972 18.9141 11.0972 13.4741C11.0972 12.1738 11.6138 10.9268 12.5333 10.0073C13.4527 9.08784 14.6998 8.57129 16.0001 8.57129Z" stroke="#EEF2F6" stroke-linecap="round" stroke-linejoin="round"/>
</svg>
