<svg  width="16" height="16" viewBox="0 0 16 16" fill="none" xmlns="http://www.w3.org/2000/svg">
  <style>
    .icon-path {
      stroke: #CDD5DF;
    }

    

    @media (prefers-color-scheme: light) {
      .icon-path {
        stroke: #f04438;
      }
    }
  </style>
<g clip-path="url(#clip0_800_2492)">
<path class="icon-path"  d="M2.50195 9.2959V14.7959H6.50195V10.7959C6.50195 10.5307 6.60731 10.2763 6.79485 10.0888C6.98238 9.90126 7.23674 9.7959 7.50195 9.7959H8.50195C8.76717 9.7959 9.02152 9.90126 9.20906 10.0888C9.3966 10.2763 9.50195 10.5307 9.50195 10.7959V14.7959H13.502V9.2959" stroke="#EEF2F6" stroke-linecap="round" stroke-linejoin="round"/>
<path class="icon-path" d="M0.501953 8.29624L7.29462 1.50357C7.38749 1.41064 7.49775 1.33693 7.61912 1.28663C7.74049 1.23634 7.87058 1.21045 8.00195 1.21045C8.13333 1.21045 8.26342 1.23634 8.38478 1.28663C8.50615 1.33693 8.61642 1.41064 8.70929 1.50357L15.502 8.29624" stroke="#EEF2F6" stroke-linecap="round" stroke-linejoin="round"/>
</g>
<defs>
<clipPath id="clip0_800_2492">
<rect width="16" height="16" fill="white"/>
</clipPath>
</defs>
</svg>
