<svg width="40" height="40" viewBox="0 0 40 40" fill="none" xmlns="http://www.w3.org/2000/svg">
<path d="M0 20C0 8.95431 8.95431 0 20 0C31.0457 0 40 8.95431 40 20C40 31.0457 31.0457 40 20 40C8.95431 40 0 31.0457 0 20Z" fill="#EFCC44" fill-opacity="0.1"/>
<g clip-path="url(#clip0_807_2568)">
<path fill-rule="evenodd" clip-rule="evenodd" d="M19.712 12.0037C19.402 12.0175 19.1664 12.0379 18.8992 12.074C17.8053 12.2221 16.7241 12.6133 15.7728 13.2051C15.0181 13.6747 14.3298 14.2855 13.7594 14.9919C13.1745 15.7163 12.71 16.5672 12.4097 17.4644C12.2085 18.0656 12.0838 18.6687 12.0291 19.3055C12.0074 19.5587 12.0034 19.6656 12.0033 19.9999C12.0033 20.3802 12.0128 20.5688 12.0483 20.8927C12.177 22.0664 12.5756 23.2151 13.2052 24.2271C13.7427 25.0909 14.4639 25.8658 15.296 26.4735C15.9418 26.9451 16.6889 27.3299 17.4624 27.5894C18.0635 27.791 18.6677 27.916 19.3056 27.9708C19.5597 27.9926 19.6654 27.9966 20 27.9966C20.3809 27.9966 20.57 27.987 20.8928 27.9516C22.0665 27.8229 23.2152 27.4243 24.2272 26.7947C24.6163 26.5526 24.9778 26.2806 25.3504 25.9494C25.4621 25.8501 25.8502 25.4619 25.9495 25.3503C26.4615 24.7742 26.8403 24.216 27.168 23.5551C27.6135 22.6563 27.8774 21.7244 27.9682 20.7301C27.9801 20.5998 27.9936 20.3759 27.9936 20.3087C27.9936 20.2692 27.9962 20.2431 28 20.2431C28.0042 20.2431 28.0064 20.1566 28.0064 19.9963C28.0064 19.8334 28.0042 19.7509 28 19.7535C27.9959 19.756 27.9936 19.7338 27.9936 19.6915C27.9936 19.5833 27.9741 19.3117 27.9517 19.1071C27.8235 17.9349 27.4244 16.7846 26.7948 15.7727C26.5051 15.3071 26.1701 14.8765 25.7865 14.4767C25.1181 13.7802 24.3994 13.2504 23.5552 12.832C22.59 12.3535 21.6183 12.0922 20.5188 12.0154C20.3909 12.0064 19.8319 11.9983 19.712 12.0037ZM19.856 13.0024C18.5039 13.0306 17.2048 13.4416 16.0898 14.1937C15.0305 14.9083 14.1721 15.9163 13.6445 17.0655C13.2671 17.8875 13.062 18.7149 13.0108 19.6223C13.0013 19.7906 13.0014 20.2082 13.0109 20.3775C13.0618 21.2836 13.2672 22.1125 13.6445 22.9343C14.131 23.9939 14.8943 24.9289 15.853 25.6397C16.4226 26.062 17.0991 26.412 17.793 26.6436C18.3827 26.8403 18.9777 26.9525 19.6256 26.9892C19.7904 26.9985 20.2097 26.9985 20.3744 26.9892C21.3578 26.9336 22.243 26.7002 23.12 26.2654C23.804 25.9262 24.3947 25.5002 24.9475 24.9474C25.5004 24.3946 25.9263 23.8039 26.2655 23.1199C26.7003 22.2429 26.9337 21.3577 26.9893 20.3743C26.9986 20.2095 26.9986 19.7903 26.9893 19.6255C26.9337 18.6421 26.7003 17.7569 26.2655 16.8799C25.8477 16.0373 25.2689 15.2982 24.5312 14.6654C23.382 13.6797 21.8856 13.0843 20.3744 13.0116C20.2201 13.0042 19.9774 12.9999 19.856 13.0024ZM19.8976 15.5044C19.8888 15.5059 19.86 15.5103 19.8336 15.5142C19.5524 15.5558 19.2749 15.7448 19.1208 15.9999C19.1048 16.0263 18.8879 16.4877 18.6388 17.0253L18.1858 18.0028L17.2641 18.0048C16.3483 18.0067 16.342 18.0068 16.283 18.0205C16.117 18.0588 15.9676 18.134 15.8355 18.2459C15.6785 18.3787 15.5581 18.5897 15.514 18.8096C15.5016 18.8716 15.4959 18.9893 15.5019 19.0643C15.5172 19.2597 15.5835 19.4357 15.6998 19.5901C15.725 19.6235 16.0093 19.9082 16.5192 20.4107C17.0329 20.917 17.2991 21.1835 17.2972 21.19C17.2957 21.1955 17.108 21.6276 16.8802 22.1503C16.6524 22.673 16.4576 23.1256 16.4474 23.1561C16.4087 23.2715 16.4008 23.3248 16.4006 23.4719C16.4005 23.6222 16.4092 23.6797 16.4513 23.8061C16.5542 24.1148 16.8106 24.3621 17.1264 24.4573C17.2262 24.4874 17.2938 24.4959 17.4304 24.4956C17.537 24.4953 17.5692 24.4929 17.6228 24.4813C17.7084 24.4628 17.7765 24.4401 17.8464 24.407C17.8781 24.3919 18.3749 24.115 18.9504 23.7915C19.5259 23.4681 20.0026 23.2034 20.0096 23.2033C20.0167 23.2033 20.489 23.4657 21.0592 23.7864C21.6295 24.1071 22.1219 24.3825 22.1536 24.3983C22.3533 24.4984 22.6005 24.5253 22.832 24.4722C23.1703 24.3947 23.4602 24.1314 23.567 23.8047C23.6004 23.7025 23.6221 23.5752 23.6223 23.4802C23.6225 23.3674 23.5943 23.2154 23.5535 23.1101C23.5433 23.0838 23.3518 22.6418 23.128 22.1279C22.9042 21.614 22.7201 21.1904 22.7189 21.1865C22.7178 21.1827 23.0581 20.8435 23.4752 20.4328C23.8923 20.0221 24.2515 19.6657 24.2733 19.6407C24.4703 19.4151 24.5562 19.1005 24.4998 18.8112C24.4391 18.5003 24.2448 18.2442 23.9622 18.1027C23.8928 18.0679 23.8294 18.0449 23.744 18.0235L23.6768 18.0067L22.752 18.0047L21.8272 18.0027L21.3863 17.0509C21.1438 16.5274 20.9313 16.0732 20.914 16.0415C20.767 15.771 20.5152 15.5842 20.2098 15.5192C20.1669 15.5101 20.1176 15.5059 20.032 15.5041C19.9669 15.5027 19.9064 15.5028 19.8976 15.5044ZM19.9886 16.5103C19.9816 16.5165 19.7506 17.0082 19.4752 17.6031C19.1999 18.198 18.9632 18.7063 18.9493 18.7327C18.8833 18.8575 18.7752 18.9445 18.6336 18.9868C18.5976 18.9975 18.5309 18.9985 17.5576 19.0015L16.5199 19.0047L17.342 19.8143C18.3084 20.7661 18.2937 20.7513 18.3284 20.8097C18.4024 20.9346 18.4187 21.0901 18.372 21.2261C18.3636 21.2504 18.1457 21.7541 17.8878 22.3455C17.6299 22.9369 17.4136 23.4342 17.4072 23.4508C17.3968 23.4776 17.3966 23.4819 17.4052 23.4905C17.4105 23.4959 17.4197 23.4984 17.4258 23.4962C17.4319 23.494 17.9624 23.197 18.6048 22.8363C19.2472 22.4755 19.7875 22.1736 19.8054 22.1653C19.9256 22.1099 20.093 22.1099 20.2141 22.1653C20.2322 22.1736 20.7667 22.4727 21.4019 22.83C22.0371 23.1873 22.5666 23.4846 22.5785 23.4907C22.5991 23.5014 22.6006 23.5014 22.6116 23.4901C22.6228 23.4787 22.6069 23.4409 22.1435 22.3775C21.8797 21.7721 21.6571 21.258 21.6488 21.2351C21.597 21.0916 21.6151 20.9245 21.6963 20.7967C21.719 20.761 21.7574 20.7175 21.8234 20.6527C21.8754 20.6017 22.273 20.21 22.7069 19.7823L23.4958 19.0047L22.4567 19.0015C21.482 18.9985 21.4152 18.9975 21.3792 18.9868C21.2803 18.9573 21.1764 18.8912 21.1232 18.8241C21.107 18.8038 21.0813 18.7641 21.0661 18.7359C21.0508 18.7077 20.8129 18.198 20.5374 17.6031C20.2619 17.0082 20.0309 16.5165 20.024 16.5103C20.017 16.5041 20.0092 16.4991 20.0064 16.4991C20.0037 16.4991 19.9957 16.5041 19.9886 16.5103ZM12.0029 20.0031C12.0029 20.1404 12.0038 20.1956 12.0048 20.1259C12.0058 20.0561 12.0058 19.9438 12.0048 19.8763C12.0038 19.8087 12.0029 19.8658 12.0029 20.0031Z" fill="#EFCC44"/>
</g>
<defs>
<clipPath id="clip0_807_2568">
<rect width="16" height="16" fill="white" transform="translate(12 12)"/>
</clipPath>
</defs>
</svg>
