<svg width="16" height="16" viewBox="0 0 16 16" fill="none" xmlns="http://www.w3.org/2000/svg">
<g clip-path="url(#clip0_825_2446)">
<path d="M0.981383 8.90489C1.60818 10.3797 2.79515 11.5451 4.28119 12.1447C5.76723 12.7443 7.4306 12.729 8.90538 12.1022C10.3802 11.4754 11.5455 10.2885 12.1452 8.80242C12.7448 7.31638 12.7295 5.65301 12.1027 4.17823C11.7924 3.44799 11.3412 2.78603 10.775 2.23015C10.2088 1.67427 9.53872 1.23535 8.80291 0.938447C8.06709 0.641547 7.28001 0.492483 6.48659 0.499766C5.69317 0.507049 4.90895 0.670537 4.17872 0.980894C3.44848 1.29125 2.78652 1.7424 2.23064 2.30858C1.67476 2.87477 1.23583 3.54489 0.938935 4.2807C0.642035 5.01652 0.492971 5.8036 0.500255 6.59702C0.507538 7.39044 0.671025 8.17466 0.981383 8.90489Z" stroke="#9AA3B2" stroke-linecap="round" stroke-linejoin="round"/>
<path d="M10.814 10.8135L15.5 15.5001" stroke="#9AA3B2" stroke-linecap="round" stroke-linejoin="round"/>
</g>
<defs>
<clipPath id="clip0_825_2446">
<rect width="16" height="16" fill="white"/>
</clipPath>
</defs>
</svg>
