<svg width="21" height="20" viewBox="0 0 21 20" fill="none" xmlns="http://www.w3.org/2000/svg">
<path d="M1.90622 16.3943L1.90622 3.60531C1.90621 3.50091 1.93473 3.39849 1.9887 3.30912C2.04267 3.21975 2.12004 3.14682 2.21244 3.09822C2.30484 3.04962 2.40877 3.0272 2.51299 3.03337C2.61721 3.03954 2.71776 3.07407 2.80379 3.13323L12.1041 9.52774C12.1809 9.58028 12.2436 9.65073 12.287 9.73299C12.3304 9.81524 12.353 9.90683 12.353 9.99982C12.353 10.0928 12.3304 10.1844 12.287 10.2667C12.2436 10.3489 12.1809 10.4194 12.1041 10.4719L2.80379 16.8664C2.71776 16.9256 2.61721 16.9601 2.51299 16.9663C2.40877 16.9725 2.30484 16.95 2.21244 16.9014C2.12004 16.8528 2.04268 16.7799 1.9887 16.6905C1.93473 16.6012 1.90621 16.4987 1.90622 16.3943Z" stroke="#EEF2F6" stroke-linecap="round" stroke-linejoin="round"/>
<path d="M17.9479 17.4478L16.8021 17.4478C16.8021 17.4478 15.6563 17.4478 15.6562 16.3019L15.6562 3.69775C15.6562 3.69775 15.6562 2.55192 16.8021 2.55192L17.9479 2.55192C17.9479 2.55192 19.0937 2.55192 19.0937 3.69775L19.0937 16.3019C19.0937 16.3019 19.0938 17.4478 17.9479 17.4478Z" stroke="#EEF2F6" stroke-linecap="round" stroke-linejoin="round"/>
</svg>
