<svg width="21" height="20" viewBox="0 0 21 20" fill="none" xmlns="http://www.w3.org/2000/svg">
<path d="M19.0938 3.60566V16.3947C19.0938 16.4991 19.0653 16.6015 19.0113 16.6909C18.9573 16.7803 18.88 16.8532 18.7876 16.9018C18.6952 16.9504 18.5912 16.9728 18.487 16.9666C18.3828 16.9605 18.2822 16.9259 18.1962 16.8668L8.89587 10.4723C8.81914 10.4197 8.75638 10.3493 8.71301 10.267C8.66964 10.1848 8.64697 10.0932 8.64697 10.0002C8.64697 9.90719 8.66964 9.8156 8.71301 9.73334C8.75638 9.65108 8.81914 9.58063 8.89587 9.52809L18.1962 3.13358C18.2822 3.07442 18.3828 3.03989 18.487 3.03372C18.5912 3.02755 18.6952 3.04997 18.7876 3.09857C18.88 3.14717 18.9573 3.2201 19.0113 3.30947C19.0653 3.39884 19.0938 3.50126 19.0938 3.60566Z" stroke="#EEF2F6" stroke-linecap="round" stroke-linejoin="round"/>
<path d="M3.05208 2.55225H4.19792C4.19792 2.55225 5.34375 2.55225 5.34375 3.69808V16.3022C5.34375 16.3022 5.34375 17.4481 4.19792 17.4481H3.05208C3.05208 17.4481 1.90625 17.4481 1.90625 16.3022V3.69808C1.90625 3.69808 1.90625 2.55225 3.05208 2.55225Z" stroke="#EEF2F6" stroke-linecap="round" stroke-linejoin="round"/>
</svg>
