<svg width="21" height="20" viewBox="0 0 21 20" fill="none" xmlns="http://www.w3.org/2000/svg">
  <style>
    .icon-path {
      stroke: #EEF2F6;
    }

    

    @media (prefers-color-scheme: light) {
      .icon-path {
        stroke: #0D121C;
      }
    }
  </style>
<path class="icon-path" d="M11.0729 12.8631V7.70839C11.0726 7.60211 11.0428 7.498 10.9868 7.40766C10.9308 7.31733 10.8509 7.24433 10.7558 7.1968C10.6607 7.14927 10.5543 7.12908 10.4485 7.13848C10.3426 7.14788 10.2414 7.18651 10.1562 7.25005L8.78125 8.2813" stroke="#EEF2F6" stroke-linecap="round" stroke-linejoin="round"/>
<path class="icon-path" d="M9.927 12.8633H12.2187" stroke="#EEF2F6" stroke-linecap="round" stroke-linejoin="round"/>
<path class="icon-path" d="M1.90625 4.84229H15.6562C15.9601 4.84229 16.2516 4.96301 16.4665 5.17789C16.6814 5.39278 16.8021 5.68422 16.8021 5.98812V10.5715" stroke="#EEF2F6" stroke-linecap="round" stroke-linejoin="round"/>
<path class="icon-path" d="M19.0938 15.1549H5.34383C5.03994 15.1549 4.74849 15.0342 4.5336 14.8193C4.31872 14.6045 4.198 14.313 4.198 14.0091V9.42578" stroke="#EEF2F6" stroke-linecap="round" stroke-linejoin="round"/>
<path class="icon-path" d="M4.19792 2.55078L1.90625 4.84245L4.19792 7.13411" stroke="#EEF2F6" stroke-linecap="round" stroke-linejoin="round"/>
<path class="icon-path" d="M16.802 17.4466L19.0937 15.1549L16.802 12.8633" stroke="#EEF2F6" stroke-linecap="round" stroke-linejoin="round"/>
</svg>
