<svg width="21" height="20" viewBox="0 0 21 20" fill="none" xmlns="http://www.w3.org/2000/svg">
  <style>
    .icon-path {
      stroke: #EEF2F6;
    }

    

    @media (prefers-color-scheme: light) {
      .icon-path {
        stroke: #0D121C;
      }
    }
  </style>
<path class="icon-path" d="M9.04861 7.70856C8.68084 7.21361 8.2107 6.80374 7.67024 6.50688C7.12977 6.21002 6.53166 6.03314 5.91667 5.98828H1.90625" stroke="#EEF2F6" stroke-linecap="round" stroke-linejoin="round"/>
<path class="icon-path" d="M19.0937 5.98828H15.0833C12.2187 5.98828 10.5 9.9987 10.5 9.9987C10.5 9.9987 8.78125 14.0091 5.91667 14.0091H1.90625" stroke="#EEF2F6" stroke-linecap="round" stroke-linejoin="round"/>
<path class="icon-path" d="M11.9514 12.2915C12.3192 12.7861 12.7895 13.1956 13.33 13.492C13.8705 13.7883 14.4685 13.9646 15.0834 14.0087H19.0938" stroke="#EEF2F6" stroke-linecap="round" stroke-linejoin="round"/>
<path class="icon-path" d="M16.8021 3.69629L19.0938 5.98796L16.8021 8.27962" stroke="#EEF2F6" stroke-linecap="round" stroke-linejoin="round"/>
<path class="icon-path" d="M16.8021 11.7173L19.0938 14.009L16.8021 16.3006" stroke="#EEF2F6" stroke-linecap="round" stroke-linejoin="round"/>
</svg>
