<svg width="16" height="12" viewBox="0 0 16 12" fill="none" xmlns="http://www.w3.org/2000/svg">
<mask id="path-1-inside-1_751_6378" fill="white">
<path fill-rule="evenodd" clip-rule="evenodd" d="M0.844252 0.688058C0.723612 0.72449 0.583036 0.859306 0.534524 0.985114C0.504764 1.06228 0.504028 1.18673 0.504028 6.17617V11.2882L0.540956 11.3698C0.584252 11.4654 0.6827 11.5663 0.784028 11.6188L0.856028 11.6562H8.00003H15.144L15.216 11.6188C15.3174 11.5663 15.4158 11.4654 15.4591 11.3698L15.496 11.2882V6.17617C15.496 1.18673 15.4953 1.06228 15.4655 0.985114C15.4289 0.890154 15.3326 0.781626 15.233 0.723034L15.16 0.68017L8.02403 0.677514C4.09923 0.676042 0.868332 0.680794 0.844252 0.688058ZM2.26448 1.69457C2.31094 1.73935 6.95227 5.30652 7.05832 5.37897C7.19113 5.46969 7.40432 5.56473 7.58073 5.61185C7.71809 5.64854 7.76652 5.65334 8.00003 5.65334C8.23353 5.65334 8.28197 5.64854 8.41932 5.61185C8.59574 5.56473 8.80892 5.46969 8.94174 5.37897C9.04779 5.30652 13.6891 1.73935 13.7356 1.69457C13.7666 1.6647 13.6668 1.66417 8.00003 1.66417C2.33328 1.66417 2.23347 1.6647 2.26448 1.69457ZM1.50403 6.52622V10.6722H8.00003H14.496V6.52622C14.496 3.21156 14.492 2.38347 14.476 2.39628C14.2147 2.60585 9.5503 6.18067 9.46219 6.23895C8.79784 6.67844 7.91395 6.78739 7.12803 6.52668C6.94609 6.46631 6.7008 6.34673 6.53787 6.23895C6.44976 6.18067 1.7854 2.60585 1.52403 2.39628C1.50804 2.38347 1.50403 3.21156 1.50403 6.52622Z"/>
</mask>
<path fill-rule="evenodd" clip-rule="evenodd" d="M0.844252 0.688058C0.723612 0.72449 0.583036 0.859306 0.534524 0.985114C0.504764 1.06228 0.504028 1.18673 0.504028 6.17617V11.2882L0.540956 11.3698C0.584252 11.4654 0.6827 11.5663 0.784028 11.6188L0.856028 11.6562H8.00003H15.144L15.216 11.6188C15.3174 11.5663 15.4158 11.4654 15.4591 11.3698L15.496 11.2882V6.17617C15.496 1.18673 15.4953 1.06228 15.4655 0.985114C15.4289 0.890154 15.3326 0.781626 15.233 0.723034L15.16 0.68017L8.02403 0.677514C4.09923 0.676042 0.868332 0.680794 0.844252 0.688058ZM2.26448 1.69457C2.31094 1.73935 6.95227 5.30652 7.05832 5.37897C7.19113 5.46969 7.40432 5.56473 7.58073 5.61185C7.71809 5.64854 7.76652 5.65334 8.00003 5.65334C8.23353 5.65334 8.28197 5.64854 8.41932 5.61185C8.59574 5.56473 8.80892 5.46969 8.94174 5.37897C9.04779 5.30652 13.6891 1.73935 13.7356 1.69457C13.7666 1.6647 13.6668 1.66417 8.00003 1.66417C2.33328 1.66417 2.23347 1.6647 2.26448 1.69457ZM1.50403 6.52622V10.6722H8.00003H14.496V6.52622C14.496 3.21156 14.492 2.38347 14.476 2.39628C14.2147 2.60585 9.5503 6.18067 9.46219 6.23895C8.79784 6.67844 7.91395 6.78739 7.12803 6.52668C6.94609 6.46631 6.7008 6.34673 6.53787 6.23895C6.44976 6.18067 1.7854 2.60585 1.52403 2.39628C1.50804 2.38347 1.50403 3.21156 1.50403 6.52622Z" fill="#EEF2F6"/>
<path d="M0.844252 0.688058L0.555446 -0.26933L0.555158 -0.269243L0.844252 0.688058ZM0.534524 0.985114L1.46755 1.34494L1.46756 1.3449L0.534524 0.985114ZM0.504028 11.2882H-0.495972V11.504L-0.406992 11.7005L0.504028 11.2882ZM0.540956 11.3698L-0.370064 11.7821L-0.370056 11.7821L0.540956 11.3698ZM0.784028 11.6188L0.323576 12.5065L0.323614 12.5065L0.784028 11.6188ZM0.856028 11.6562L0.395614 12.5439L0.612127 12.6562H0.856028V11.6562ZM15.144 11.6562V12.6562H15.3879L15.6044 12.5439L15.144 11.6562ZM15.216 11.6188L15.6764 12.5065L15.6765 12.5065L15.216 11.6188ZM15.4591 11.3698L16.3701 11.7821L16.3701 11.7821L15.4591 11.3698ZM15.496 11.2882L16.4071 11.7005L16.496 11.5039V11.2882H15.496ZM15.4655 0.985114L16.3986 0.625292L16.3985 0.625271L15.4655 0.985114ZM15.233 0.723034L15.7399 -0.138957L15.7397 -0.13908L15.233 0.723034ZM15.16 0.68017L15.6667 -0.181944L15.4323 -0.319729L15.1604 -0.31983L15.16 0.68017ZM8.02403 0.677514L8.02365 1.67751H8.02366L8.02403 0.677514ZM2.26448 1.69457L2.95845 0.974566L2.95827 0.974394L2.26448 1.69457ZM7.05832 5.37897L6.49422 6.20468L6.49429 6.20472L7.05832 5.37897ZM7.58073 5.61185L7.32268 6.57798L7.32268 6.57798L7.58073 5.61185ZM8.41932 5.61185L8.67737 6.57798L8.67737 6.57798L8.41932 5.61185ZM8.94174 5.37897L9.50577 6.20472L9.50584 6.20468L8.94174 5.37897ZM13.7356 1.69457L13.0418 0.974394L13.0416 0.974566L13.7356 1.69457ZM1.50403 10.6722H0.504028V11.6722H1.50403V10.6722ZM14.496 10.6722V11.6722H15.496V10.6722H14.496ZM14.476 2.39628L15.1016 3.17647L15.1016 3.17646L14.476 2.39628ZM9.46219 6.23895L8.91046 5.40493L8.91046 5.40493L9.46219 6.23895ZM7.12803 6.52668L6.8131 7.4758L6.81318 7.47582L7.12803 6.52668ZM6.53787 6.23895L5.98614 7.07298L5.98616 7.07299L6.53787 6.23895ZM1.52403 2.39628L0.898477 3.17646L0.898483 3.17647L1.52403 2.39628ZM0.555158 -0.269243C0.296432 -0.19111 0.0982887 -0.0415389 -0.0298411 0.0813462C-0.161424 0.207543 -0.308119 0.390913 -0.398512 0.625332L1.46756 1.3449C1.44422 1.40543 1.41842 1.4462 1.40246 1.46874C1.38553 1.49265 1.36932 1.5106 1.35452 1.52479C1.33989 1.53883 1.3192 1.55632 1.28988 1.57503C1.26272 1.59237 1.21055 1.62204 1.13335 1.64536L0.555158 -0.269243ZM-0.398497 0.625292C-0.470837 0.812871 -0.477602 0.983306 -0.481901 1.08483C-0.487049 1.20644 -0.48993 1.40316 -0.491866 1.73266C-0.495793 2.40089 -0.495972 3.6835 -0.495972 6.17617H1.50403C1.50403 3.6794 1.50422 2.40506 1.5081 1.74442C1.51007 1.40948 1.51295 1.24878 1.51631 1.16943C1.52052 1.07 1.52501 1.19594 1.46755 1.34494L-0.398497 0.625292ZM-0.495972 6.17617V11.2882H1.50403V6.17617H-0.495972ZM-0.406992 11.7005L-0.370064 11.7821L1.45198 10.9574L1.41505 10.8758L-0.406992 11.7005ZM-0.370056 11.7821C-0.225894 12.1006 0.0415754 12.3602 0.323576 12.5065L1.24448 10.7311C1.30162 10.7608 1.33578 10.7909 1.35639 10.812C1.3752 10.8313 1.41521 10.8762 1.45197 10.9574L-0.370056 11.7821ZM0.323614 12.5065L0.395614 12.5439L1.31644 10.7685L1.24444 10.7311L0.323614 12.5065ZM0.856028 12.6562H8.00003V10.6562H0.856028V12.6562ZM8.00003 12.6562H15.144V10.6562H8.00003V12.6562ZM15.6044 12.5439L15.6764 12.5065L14.7556 10.7311L14.6836 10.7685L15.6044 12.5439ZM15.6765 12.5065C15.9585 12.3602 16.226 12.1006 16.3701 11.7821L14.5481 10.9574C14.5848 10.8762 14.6249 10.8313 14.6437 10.812C14.6643 10.7909 14.6984 10.7608 14.7556 10.7311L15.6765 12.5065ZM16.3701 11.7821L16.4071 11.7005L14.585 10.8758L14.5481 10.9574L16.3701 11.7821ZM16.496 11.2882V6.17617H14.496V11.2882H16.496ZM16.496 6.17617C16.496 3.6835 16.4958 2.40089 16.4919 1.73266C16.49 1.40316 16.4871 1.20644 16.482 1.08483C16.4777 0.983306 16.4709 0.812871 16.3986 0.625292L14.5325 1.34494C14.4751 1.19594 14.4795 1.07 14.4837 1.16943C14.4871 1.24878 14.49 1.40948 14.492 1.74442C14.4958 2.40506 14.496 3.6794 14.496 6.17617H16.496ZM16.3985 0.625271C16.2697 0.291311 16.0063 0.0177148 15.7399 -0.138957L14.726 1.58502C14.6723 1.55341 14.6422 1.52365 14.6249 1.5042C14.6144 1.49231 14.6013 1.47594 14.5869 1.45366C14.5733 1.43247 14.5523 1.39634 14.5325 1.34496L16.3985 0.625271ZM15.7397 -0.13908L15.6667 -0.181944L14.6533 1.54228L14.7262 1.58515L15.7397 -0.13908ZM15.1604 -0.31983L8.0244 -0.322486L8.02366 1.67751L15.1597 1.68017L15.1604 -0.31983ZM8.0244 -0.322486C6.06158 -0.323222 4.27202 -0.322402 2.9699 -0.320489C2.31896 -0.319533 1.78923 -0.318302 1.4204 -0.316853C1.23621 -0.31613 1.09092 -0.315347 0.990331 -0.314506C0.940446 -0.314089 0.899243 -0.313639 0.869029 -0.313134C0.854585 -0.312893 0.838534 -0.312574 0.823855 -0.312104C0.817397 -0.311898 0.804586 -0.311461 0.789728 -0.310598C0.783084 -0.310212 0.7676 -0.30927 0.748279 -0.307384C0.738862 -0.306465 0.720985 -0.304603 0.698704 -0.301315C0.687222 -0.299621 0.62805 -0.291231 0.555446 -0.26933L1.13306 1.64545C1.06064 1.66729 1.00176 1.67562 0.990658 1.67726C0.968761 1.68049 0.951365 1.6823 0.942526 1.68316C0.924362 1.68493 0.910424 1.68576 0.905713 1.68604C0.899393 1.6864 0.894659 1.68661 0.892454 1.6867C0.889985 1.6868 0.888337 1.68686 0.887801 1.68687C0.887 1.6869 0.890938 1.68678 0.902439 1.68659C0.924114 1.68622 0.958626 1.68583 1.00706 1.68542C1.1031 1.68462 1.24484 1.68385 1.42825 1.68313C1.79463 1.68169 2.32244 1.68046 2.97284 1.67951C4.27339 1.6776 6.06167 1.67678 8.02365 1.67751L8.0244 -0.322486ZM1.57051 2.41457C1.59699 2.4401 1.62024 2.45946 1.62122 2.46029C1.62829 2.46626 1.63438 2.47125 1.63806 2.47425C1.64573 2.4805 1.65348 2.4867 1.65982 2.49174C1.67303 2.50224 1.6898 2.51541 1.70873 2.53022C1.74707 2.56021 1.80076 2.60194 1.86686 2.65317C1.99941 2.7559 2.1857 2.89979 2.40755 3.07086C2.85144 3.41316 3.43973 3.86587 4.02967 4.31927C5.18279 5.20552 6.41044 6.14745 6.49422 6.20468L7.62241 4.55326C7.62572 4.55552 7.35393 4.34884 6.8792 3.98518C6.429 3.6403 5.83789 3.18655 5.24843 2.73352C4.65898 2.28048 4.0716 1.82847 3.62886 1.48706C3.40739 1.31629 3.22263 1.17358 3.09204 1.07237C3.02658 1.02164 2.97568 0.982064 2.94088 0.954845C2.92324 0.941049 2.91129 0.931641 2.90421 0.926008C2.8686 0.897708 2.91562 0.93329 2.95845 0.974566L1.57051 2.41457ZM6.49429 6.20472C6.7321 6.36716 7.05162 6.50558 7.32268 6.57798L7.83878 4.64572C7.81013 4.63806 7.76285 4.62182 7.71034 4.5984C7.6856 4.58737 7.66402 4.57668 7.64693 4.56743C7.62906 4.55776 7.62135 4.55253 7.62235 4.55322L6.49429 6.20472ZM7.32268 6.57798C7.58058 6.64686 7.72743 6.65334 8.00003 6.65334V4.65334C7.9433 4.65334 7.90717 4.65302 7.8812 4.65235C7.85615 4.6517 7.84982 4.65092 7.85281 4.65121C7.85864 4.65179 7.86623 4.65297 7.87118 4.65398C7.87252 4.65425 7.86597 4.65298 7.83878 4.64572L7.32268 6.57798ZM8.00003 6.65334C8.27262 6.65334 8.41948 6.64686 8.67737 6.57798L8.16128 4.64572C8.13409 4.65298 8.12753 4.65425 8.12888 4.65398C8.13383 4.65297 8.14142 4.65179 8.14725 4.65121C8.15024 4.65092 8.1439 4.6517 8.11886 4.65235C8.09288 4.65302 8.05676 4.65334 8.00003 4.65334V6.65334ZM8.67737 6.57798C8.94844 6.50558 9.26796 6.36716 9.50577 6.20472L8.37771 4.55322C8.37871 4.55253 8.371 4.55776 8.35313 4.56743C8.33603 4.57668 8.31446 4.58737 8.28972 4.5984C8.2372 4.62182 8.18993 4.63806 8.16128 4.64572L8.67737 6.57798ZM9.50584 6.20468C9.58961 6.14745 10.8173 5.20552 11.9704 4.31927C12.5603 3.86587 13.1486 3.41316 13.5925 3.07086C13.8144 2.89979 14.0007 2.7559 14.1332 2.65317C14.1993 2.60194 14.253 2.56021 14.2913 2.53022C14.3103 2.51541 14.327 2.50224 14.3402 2.49174C14.3466 2.4867 14.3543 2.4805 14.362 2.47425C14.3657 2.47125 14.3718 2.46626 14.3788 2.46029C14.3798 2.45946 14.4031 2.4401 14.4296 2.41457L13.0416 0.974566C13.0844 0.93329 13.1315 0.897708 13.0959 0.926008C13.0888 0.931641 13.0768 0.94105 13.0592 0.954845C13.0244 0.982064 12.9735 1.02164 12.908 1.07237C12.7774 1.17358 12.5927 1.31629 12.3712 1.48706C11.9285 1.82847 11.3411 2.28048 10.7516 2.73352C10.1622 3.18655 9.57106 3.6403 9.12086 3.98518C8.64613 4.34884 8.37434 4.55552 8.37765 4.55326L9.50584 6.20468ZM14.4294 2.41475C14.4411 2.40343 14.5171 2.33214 14.5862 2.22146C14.6556 2.11035 14.8025 1.82212 14.7087 1.44678C14.6166 1.07863 14.3592 0.89402 14.2485 0.827999C14.1316 0.758318 14.0275 0.728902 13.9869 0.718129C13.8525 0.682463 13.715 0.679168 13.6948 0.678248C13.5772 0.672907 13.3691 0.670086 13.0098 0.668182C12.2769 0.664298 10.8315 0.66417 8.00003 0.66417V2.66417C10.8353 2.66417 12.2732 2.66431 12.9992 2.66815C13.3692 2.67012 13.5344 2.67303 13.604 2.67619C13.6773 2.67952 13.5868 2.68116 13.474 2.65124C13.4388 2.64191 13.3386 2.61398 13.2243 2.54584C13.1161 2.48136 12.86 2.29833 12.7684 1.93183C12.675 1.55813 12.8214 1.27161 12.8897 1.16225C12.9577 1.05332 13.032 0.983839 13.0418 0.974394L14.4294 2.41475ZM8.00003 0.66417C5.16858 0.66417 3.72314 0.664298 2.99029 0.668182C2.63096 0.670086 2.42284 0.672907 2.3053 0.678248C2.28505 0.679168 2.14758 0.682463 2.01315 0.718129C1.97255 0.728902 1.86844 0.758318 1.75157 0.827999C1.64084 0.894019 1.38341 1.07863 1.29138 1.44678C1.19755 1.82212 1.3445 2.11034 1.41387 2.22146C1.48298 2.33214 1.55894 2.40343 1.57068 2.41475L2.95827 0.974394C2.96807 0.983839 3.04235 1.05332 3.11036 1.16225C3.17864 1.27161 3.32509 1.55813 3.23167 1.93183C3.14005 2.29833 2.88394 2.48136 2.77579 2.54584C2.66151 2.61398 2.56123 2.64191 2.52605 2.65124C2.41328 2.68116 2.32279 2.67952 2.39608 2.67619C2.46561 2.67303 2.63081 2.67012 3.00089 2.66815C3.72688 2.66431 5.16472 2.66417 8.00003 2.66417V0.66417ZM0.504028 6.52622V10.6722H2.50403V6.52622H0.504028ZM1.50403 11.6722H8.00003V9.67217H1.50403V11.6722ZM8.00003 11.6722H14.496V9.67217H8.00003V11.6722ZM15.496 10.6722V6.52622H13.496V10.6722H15.496ZM15.496 6.52622C15.496 4.86941 15.495 3.83122 15.492 3.2086C15.4905 2.8985 15.4885 2.6857 15.4857 2.5495C15.4843 2.48397 15.4826 2.4236 15.4798 2.37543C15.4787 2.35747 15.4759 2.31078 15.4682 2.25864C15.4668 2.24876 15.4549 2.15776 15.4158 2.05168C15.4075 2.0294 15.3384 1.82411 15.1408 1.64859C15.0201 1.54145 14.8037 1.40456 14.5032 1.3965C14.2021 1.38842 13.9778 1.51403 13.8505 1.6161L15.1016 3.17646C14.9745 3.27834 14.7505 3.40385 14.4496 3.39578C14.1493 3.38772 13.9332 3.25094 13.8128 3.14402C13.6156 2.96893 13.547 2.76449 13.5392 2.7435C13.5011 2.64002 13.4901 2.55334 13.4895 2.54963C13.4837 2.50983 13.4826 2.48286 13.4832 2.49279C13.4836 2.5004 13.4848 2.52852 13.4861 2.59061C13.4886 2.70965 13.4905 2.90864 13.492 3.21829C13.495 3.83518 13.496 4.86837 13.496 6.52622H15.496ZM13.8505 1.61609C13.7311 1.71183 12.5141 2.64697 11.2958 3.58064C10.6912 4.04405 10.0922 4.50257 9.63899 4.84874C9.15426 5.219 8.89483 5.41527 8.91046 5.40493L10.0139 7.07298C10.0736 7.03349 10.4303 6.76105 10.853 6.4381C11.3074 6.09105 11.9073 5.63183 12.5124 5.16805C13.7137 4.24736 14.9596 3.2903 15.1016 3.17647L13.8505 1.61609ZM8.91046 5.40493C8.51355 5.6675 7.95096 5.74608 7.44288 5.57754L6.81318 7.47582C7.87694 7.82869 9.08213 7.68938 10.0139 7.07298L8.91046 5.40493ZM7.44295 5.57757C7.34623 5.54547 7.18038 5.46498 7.08958 5.40492L5.98616 7.07299C6.22121 7.22848 6.54595 7.38716 6.8131 7.4758L7.44295 5.57757ZM7.08959 5.40493C7.10523 5.41527 6.8458 5.219 6.36107 4.84874C5.90789 4.50257 5.30887 4.04405 4.70423 3.58064C3.48598 2.64697 2.26898 1.71183 2.14957 1.61609L0.898483 3.17647C1.04046 3.2903 2.28631 4.24736 3.48762 5.16805C4.09275 5.63183 4.69268 6.09105 5.14701 6.4381C5.5698 6.76105 5.92645 7.03349 5.98614 7.07298L7.08959 5.40493ZM2.14958 1.6161C2.02227 1.51403 1.79799 1.38842 1.49685 1.3965C1.19634 1.40456 0.979913 1.54145 0.859272 1.64858C0.661618 1.82411 0.592512 2.0294 0.584297 2.05168C0.545192 2.15776 0.533264 2.24876 0.531811 2.25864C0.524143 2.31078 0.521359 2.35747 0.520303 2.37542C0.517471 2.4236 0.515719 2.48397 0.514371 2.5495C0.511571 2.6857 0.509548 2.8985 0.508046 3.2086C0.50503 3.83122 0.504028 4.86941 0.504028 6.52622H2.50403C2.50403 4.86837 2.50503 3.83518 2.50802 3.21829C2.50952 2.90864 2.5115 2.70965 2.51395 2.59061C2.51523 2.52852 2.51641 2.5004 2.51686 2.49279C2.51744 2.48286 2.51638 2.50984 2.51053 2.54963C2.50998 2.55334 2.49898 2.64002 2.46083 2.7435C2.45309 2.76449 2.38447 2.96893 2.1873 3.14402C2.06691 3.25094 1.85072 3.38772 1.55047 3.39578C1.24957 3.40385 1.02553 3.27834 0.898477 3.17646L2.14958 1.6161Z" fill="#9AA3B2" mask="url(#path-1-inside-1_751_6378)"/>
</svg>
