<svg width="497" height="496" viewBox="0 0 497 496" fill="none" xmlns="http://www.w3.org/2000/svg">
<path d="M461.964 -53.4124H462.909C462.909 -53.6629 462.809 -53.9032 462.632 -54.0803C462.455 -54.2574 462.215 -54.3569 461.964 -54.3569V-53.4124ZM461.964 460.964V461.909C462.215 461.909 462.455 461.809 462.632 461.632C462.809 461.455 462.909 461.215 462.909 460.964H461.964ZM-52.4125 460.964H-53.357C-53.3578 461.088 -53.3339 461.212 -53.2867 461.327C-53.2395 461.441 -53.1699 461.546 -53.0821 461.634C-52.9942 461.722 -52.8898 461.791 -52.7749 461.838C-52.6599 461.886 -52.5368 461.909 -52.4125 461.909V460.964ZM-52.4125 -53.4124V-54.3569C-52.663 -54.3569 -52.9033 -54.2574 -53.0804 -54.0803C-53.2575 -53.9032 -53.357 -53.6629 -53.357 -53.4124H-52.4125ZM-22.2328 -23.2327L-22.2895 -24.1754C-22.5196 -24.1615 -22.7368 -24.064 -22.9 -23.9012C-23.0632 -23.7383 -23.1612 -23.5214 -23.1755 -23.2913L-22.2328 -23.2327ZM6.6358 5.63591L6.5149 4.69893C6.3078 4.72562 6.11538 4.82018 5.96773 4.96784C5.82007 5.11549 5.72551 5.30791 5.69883 5.51501L6.6358 5.63591ZM34.1916 33.1917L34.0026 32.266C33.8211 32.303 33.6545 32.3926 33.5235 32.5236C33.3925 32.6546 33.3029 32.8212 33.2659 33.0028L34.1916 33.1917ZM56.4995 55.4996L56.2539 54.5872C56.0941 54.6302 55.9483 54.7144 55.8313 54.8314C55.7143 54.9485 55.6301 55.0942 55.5871 55.254L56.4995 55.4996ZM81.4313 80.4314L81.1178 79.5398C80.9843 79.5867 80.863 79.663 80.7629 79.7631C80.6629 79.8631 80.5866 79.9844 80.5397 80.1179L81.4313 80.4314ZM107.674 106.674L107.285 105.813C107.075 105.908 106.907 106.075 106.813 106.285L107.674 106.674ZM132.606 131.606L132.143 130.783C131.992 130.867 131.867 130.992 131.782 131.143L132.606 131.606ZM153.601 152.601L153.076 151.815C152.972 151.883 152.883 151.972 152.815 152.076L153.601 152.601ZM186.405 180.157L185.794 179.435C185.755 179.469 185.719 179.506 185.685 179.545L186.405 180.157ZM223.147 227.395L223.757 228.116C223.796 228.083 223.833 228.046 223.867 228.007L223.147 227.395ZM431.784 430.785L431.843 431.727C432.072 431.712 432.289 431.614 432.451 431.451C432.614 431.289 432.712 431.073 432.727 430.843L431.784 430.785ZM402.916 401.916L403.037 402.853C403.244 402.826 403.436 402.732 403.584 402.584C403.731 402.436 403.826 402.244 403.853 402.037L402.916 401.916ZM375.36 374.36L375.547 375.286C375.729 375.249 375.896 375.159 376.028 375.028C376.159 374.896 376.249 374.729 376.286 374.547L375.36 374.36ZM353.052 352.052L353.298 352.965C353.457 352.922 353.603 352.837 353.72 352.72C353.837 352.603 353.922 352.458 353.964 352.298L353.052 352.052ZM328.12 327.12L328.434 328.012C328.567 327.965 328.689 327.889 328.789 327.789C328.889 327.689 328.965 327.567 329.012 327.434L328.12 327.12ZM301.877 300.877L302.267 301.739C302.476 301.644 302.644 301.476 302.739 301.267L301.877 300.877ZM276.946 275.946L277.408 276.769C277.559 276.684 277.684 276.56 277.769 276.408L276.946 275.946ZM255.95 254.951L256.476 255.736C256.579 255.668 256.668 255.579 256.736 255.476L255.95 254.951ZM461.02 -53.4124V460.964H462.909V-53.4124H461.02ZM461.964 460.02H-52.4125V461.909H461.964V460.02ZM-51.468 460.964V-53.4124H-53.357V460.964H-51.468ZM-52.4125 -52.4679H461.964V-54.3569H-52.4125V-52.4679ZM-51.4699 461.023L-21.2902 -23.1742L-23.1755 -23.2913L-53.3551 460.906L-51.4699 461.023ZM-22.1743 -22.2901L462.023 -52.4679L461.906 -54.3532L-22.2895 -24.1754L-22.1743 -22.2901ZM-51.4755 461.085L7.57277 5.75681L5.69883 5.51501L-53.3495 460.843L-51.4755 461.085ZM6.7567 6.57288L462.085 -52.4754L461.843 -54.3494L6.5149 4.69893L6.7567 6.57288ZM-51.4869 461.149L35.1172 33.3787L33.2659 33.0028L-53.3381 460.777L-51.4869 461.149ZM34.3786 34.1173L462.151 -52.4868L461.777 -54.338L34.0026 32.266L34.3786 34.1173ZM-51.5001 461.21L57.41 55.7433L55.5871 55.254L-53.3249 460.719L-51.5001 461.21ZM56.7432 56.4101L462.21 -52.5L461.719 -54.3248L56.2539 54.5872L56.7432 56.4101ZM-51.5209 461.28L82.3211 80.7469L80.5397 80.1179L-53.3041 460.652L-51.5209 461.28ZM81.743 81.3212L462.278 -52.5208L461.65 -54.304L81.1178 79.5398L81.743 81.3212ZM-51.5511 461.353L108.534 107.063L106.813 106.285L-53.2739 460.575L-51.5511 461.353ZM108.063 107.536L462.353 -52.551L461.575 -54.2738L107.285 105.813L108.063 107.536ZM-51.5889 461.427L133.43 132.069L131.782 131.143L-53.2361 460.501L-51.5889 461.427ZM133.069 132.43L462.427 -52.5888L461.501 -54.236L132.143 130.783L133.069 132.43ZM-51.6267 461.489L154.383 153.124L152.815 152.076L-53.1984 460.439L-51.6267 461.489ZM154.124 153.385L462.489 -52.6266L461.439 -54.1983L153.076 151.815L154.124 153.385ZM-51.6928 461.576L187.124 180.769L185.685 179.545L-53.1304 460.352L-51.6928 461.576ZM187.017 180.877L462.574 -52.6927L461.354 -54.1321L185.794 179.435L187.017 180.877ZM461.244 -54.0245L222.427 226.783L223.867 228.007L462.684 -52.8022L461.244 -54.0245ZM222.535 226.675L-53.0227 460.243L-51.8023 461.684L223.757 228.116L222.535 226.675ZM461.021 -53.4729L430.842 430.726L432.727 430.843L462.907 -53.3538L461.021 -53.4729ZM431.726 429.842L-52.4711 460.022L-52.3539 461.907L431.843 431.727L431.726 429.842ZM461.027 -53.5333L401.979 401.795L403.853 402.037L462.901 -53.2915L461.027 -53.5333ZM402.795 400.979L-52.5334 460.027L-52.2916 461.901L403.037 402.853L402.795 400.979ZM461.038 -53.5994L374.434 374.173L376.286 374.547L462.89 -53.2254L461.038 -53.5994ZM375.173 373.434L-52.5995 460.039L-52.2255 461.89L375.547 375.286L375.173 373.434ZM461.052 -53.658L352.14 351.81L353.964 352.298L462.876 -53.1668L461.052 -53.658ZM352.808 351.14L-52.6581 460.052L-52.1669 461.877L353.298 352.965L352.808 351.14ZM461.072 -53.7241L327.23 326.809L329.012 327.434L462.856 -53.0988L461.072 -53.7241ZM327.809 326.231L-52.7242 460.073L-52.1008 461.856L328.434 328.012L327.809 326.231ZM461.103 -53.8015L301.016 300.488L302.739 301.267L462.825 -53.0233L461.103 -53.8015ZM301.488 300.016L-52.8017 460.103L-52.0234 461.826L302.267 301.739L301.488 300.016ZM461.14 -53.8752L276.122 275.483L277.769 276.408L462.788 -52.9496L461.14 -53.8752ZM276.483 275.122L-52.8753 460.141L-51.9497 461.788L277.408 276.769L276.483 275.122ZM461.178 -53.9376L255.165 254.425L256.736 255.476L462.75 -52.8872L461.178 -53.9376ZM255.425 254.165L-52.9377 460.178L-51.8873 461.75L256.476 255.736L255.425 254.165Z" fill="white" fill-opacity="0.5"/>
</svg>
