<svg width="188" height="52" viewBox="0 0 188 52" fill="none" xmlns="http://www.w3.org/2000/svg">
<path fill-rule="evenodd" clip-rule="evenodd" d="M26.6866 52C41.046 52 52.6866 40.3594 52.6866 26C52.6866 11.6406 41.046 0 26.6866 0C12.3272 0 0.686646 11.6406 0.686646 26C0.686646 40.3594 12.3272 52 26.6866 52ZM26.6866 46.4649C37.9891 46.4649 47.1516 37.3024 47.1516 25.9999C47.1516 14.6974 37.9891 5.53495 26.6866 5.53495C15.3841 5.53495 6.22166 14.6974 6.22166 25.9999C6.22166 37.3024 15.3841 46.4649 26.6866 46.4649Z" fill="url(#paint0_angular_601_52296)"/>
<g filter="url(#filter0_i_601_52296)">
<path fill-rule="evenodd" clip-rule="evenodd" d="M26.6867 46.4651C37.9892 46.4651 47.1517 37.3026 47.1517 26.0001C47.1517 14.6976 37.9892 5.53516 26.6867 5.53516C15.3842 5.53516 6.22168 14.6976 6.22168 26.0001C6.22168 37.3026 15.3842 46.4651 26.6867 46.4651ZM26.6867 37.1428C32.8407 37.1428 37.8295 32.154 37.8295 26C37.8295 19.846 32.8407 14.8571 26.6867 14.8571C20.5326 14.8571 15.5438 19.846 15.5438 26C15.5438 32.154 20.5326 37.1428 26.6867 37.1428Z" fill="url(#paint1_angular_601_52296)"/>
</g>
<path d="M78.458 29.115L78.4786 29.2181C79.7782 29.1769 81.0571 29.1769 82.2536 29.1769C84.9352 29.1769 86.3792 29.1356 87.7613 29.0944C87.6994 29.7751 87.6994 30.889 87.6994 31.5285C87.6994 32.2092 87.72 32.8899 87.7613 33.7357H69.8767C69.918 32.9518 69.918 32.2505 69.918 31.5904C69.918 30.7446 69.918 29.7132 69.8973 29.2594C71.5888 28.3518 74.2911 26.2889 76.8696 24.4324C77.7566 23.7929 78.6849 23.2772 79.5513 22.8441L79.51 22.7203C78.3136 22.7822 77.0759 22.8028 75.7145 22.8028C72.7234 22.8028 71.3207 22.8234 69.9386 22.8441C69.9592 22.184 69.9798 21.1113 69.9798 20.5131C69.9798 19.8736 69.9798 19.0279 69.9386 18.2646H87.72C87.6994 19.0072 87.6788 19.6673 87.6788 20.3274C87.6788 21.0494 87.6788 22.3077 87.72 22.9059C86.1935 23.7517 84.007 25.4638 81.5522 27.341C80.397 28.1455 79.4069 28.6612 78.458 29.115Z" fill="#EEF2F6"/>
<path d="M112.388 18.2646H118.06C116.843 21.9364 114.327 31.4047 113.728 33.7357C112.78 33.7151 111.439 33.6944 109.912 33.6944C107.891 33.6944 106.344 33.7151 105.766 33.7357C105.498 32.4774 104.879 29.7338 104.343 27.1141C104.136 25.9795 103.93 24.7006 103.765 23.5454H103.6C103.414 24.7212 103.187 26.062 102.94 27.176C102.362 29.6101 101.702 32.333 101.372 33.7357C100.671 33.7357 99.2269 33.6944 97.948 33.6944C95.8851 33.6944 94.6681 33.7151 94.0286 33.7357C93.286 31.0334 90.9757 21.957 89.6555 18.2646H96.6484C96.7722 19.3579 97.5354 23.6692 98.1336 26.5159C98.3193 27.4441 98.4843 28.3518 98.6493 29.0944H98.7731C98.9381 28.3311 99.1444 27.4235 99.3507 26.4746C99.9283 23.6279 100.753 19.7705 100.918 18.2646C101.744 18.2852 103.724 18.3059 104.796 18.3059C105.787 18.3059 107.416 18.2852 108.179 18.2646C108.365 19.6467 109.005 23.6279 109.685 26.5571C109.954 27.5679 110.119 28.4549 110.263 29.1769H110.387C110.51 28.4343 110.655 27.5679 110.882 26.5571C111.459 23.6279 112.181 19.7705 112.388 18.2646Z" fill="#EEF2F6"/>
<path d="M140.38 25.7732C140.38 31.2397 137.224 34.1483 129.632 34.1483C122.062 34.1483 119.03 31.2397 119.03 25.7732C119.03 20.2655 122.454 17.8521 129.653 17.8521C136.852 17.8521 140.38 20.2655 140.38 25.7732ZM129.653 29.6307C132.52 29.6307 133.655 28.3724 133.655 25.8145C133.655 23.2772 132.5 22.1427 129.653 22.1427C126.827 22.1427 125.651 23.2566 125.651 25.8145C125.651 28.393 126.806 29.6307 129.653 29.6307Z" fill="#EEF2F6"/>
<path d="M164.135 25.7732C164.135 31.2397 160.979 34.1483 153.388 34.1483C145.818 34.1483 142.785 31.2397 142.785 25.7732C142.785 20.2655 146.21 17.8521 153.409 17.8521C160.608 17.8521 164.135 20.2655 164.135 25.7732ZM153.409 29.6307C156.276 29.6307 157.411 28.3724 157.411 25.8145C157.411 23.2772 156.255 22.1427 153.409 22.1427C150.583 22.1427 149.407 23.2566 149.407 25.8145C149.407 28.393 150.562 29.6307 153.409 29.6307Z" fill="#EEF2F6"/>
<path d="M179.33 18.2646H187.066C185.271 20.4512 182.218 24.5974 179.764 26.1239C181.146 26.6396 182.218 27.5885 183.167 28.8468C185.643 31.6523 186.715 33.0756 187.313 33.7357H180.217C179.33 33.7357 178.938 33.55 178.588 33.0137C177.309 31.4253 175.514 29.0531 174.029 27.8567H173.843C173.843 30.0226 173.864 31.9204 173.946 33.7357H167.304C167.387 31.3841 167.407 29.28 167.407 26.0002C167.407 22.7203 167.387 20.575 167.304 18.2646H173.946C173.843 20.3687 173.843 22.6997 173.843 25.2782H173.988C174.73 24.4324 175.514 23.5867 176.195 22.7615C177.783 20.8019 178.65 19.3579 179.33 18.2646Z" fill="#EEF2F6"/>
<defs>
<filter id="filter0_i_601_52296" x="6.22168" y="5.53516" width="40.93" height="40.9302" filterUnits="userSpaceOnUse" color-interpolation-filters="sRGB">
<feFlood flood-opacity="0" result="BackgroundImageFix"/>
<feBlend mode="normal" in="SourceGraphic" in2="BackgroundImageFix" result="shape"/>
<feColorMatrix in="SourceAlpha" type="matrix" values="0 0 0 0 0 0 0 0 0 0 0 0 0 0 0 0 0 0 127 0" result="hardAlpha"/>
<feOffset/>
<feGaussianBlur stdDeviation="2.03922"/>
<feComposite in2="hardAlpha" operator="arithmetic" k2="-1" k3="1"/>
<feColorMatrix type="matrix" values="0 0 0 0 0.278667 0 0 0 0 0 0 0 0 0 0.633333 0 0 0 1 0"/>
<feBlend mode="normal" in2="shape" result="effect1_innerShadow_601_52296"/>
</filter>
<radialGradient id="paint0_angular_601_52296" cx="0" cy="0" r="1" gradientUnits="userSpaceOnUse" gradientTransform="translate(27.6119 24.9822) rotate(115.362) scale(31.5379 39.2254)">
<stop stop-color="#FF61A8"/>
<stop offset="0.411458" stop-color="#6957FF"/>
<stop offset="0.59956" stop-color="#FFC83A"/>
<stop offset="0.755208" stop-color="#7F3FFF"/>
<stop offset="0.932292" stop-color="#FC00E3"/>
</radialGradient>
<radialGradient id="paint1_angular_601_52296" cx="0" cy="0" r="1" gradientUnits="userSpaceOnUse" gradientTransform="translate(27.415 25.199) rotate(115.362) scale(24.8239 30.8749)">
<stop stop-color="#FF61A8"/>
<stop offset="0.411458" stop-color="#6957FF"/>
<stop offset="0.59956" stop-color="#FFC83A"/>
<stop offset="0.755208" stop-color="#7F3FFF"/>
<stop offset="0.932292" stop-color="#FC00E3"/>
</radialGradient>
</defs>
</svg>
