<svg width="187" height="76" viewBox="0 0 187 76" fill="none" xmlns="http://www.w3.org/2000/svg">
<path fill-rule="evenodd" clip-rule="evenodd" d="M26 64C40.3594 64 52 52.3594 52 38C52 23.6406 40.3594 12 26 12C11.6406 12 0 23.6406 0 38C0 52.3594 11.6406 64 26 64ZM26 58.4649C37.3025 58.4649 46.465 49.3024 46.465 37.9999C46.465 26.6974 37.3025 17.5349 26 17.5349C14.6975 17.5349 5.53501 26.6974 5.53501 37.9999C5.53501 49.3024 14.6975 58.4649 26 58.4649Z" fill="url(#paint0_angular_19_2247)"/>
<g filter="url(#filter0_i_19_2247)">
<path fill-rule="evenodd" clip-rule="evenodd" d="M25.9999 58.4649C37.3024 58.4649 46.4649 49.3024 46.4649 37.9999C46.4649 26.6974 37.3024 17.5349 25.9999 17.5349C14.6974 17.5349 5.53491 26.6974 5.53491 37.9999C5.53491 49.3024 14.6974 58.4649 25.9999 58.4649ZM25.9999 49.1426C32.1539 49.1426 37.1428 44.1538 37.1428 37.9997C37.1428 31.8457 32.1539 26.8569 25.9999 26.8569C19.8459 26.8569 14.8571 31.8457 14.8571 37.9997C14.8571 44.1538 19.8459 49.1426 25.9999 49.1426Z" fill="url(#paint1_angular_19_2247)"/>
</g>
<path d="M77.7715 41.1148L77.7921 41.2179C79.0917 41.1766 80.3706 41.1766 81.567 41.1766C84.2487 41.1766 85.6927 41.1354 87.0747 41.0941C87.0129 41.7748 87.0129 42.8888 87.0129 43.5282C87.0129 44.209 87.0335 44.8897 87.0747 45.7354H69.1902C69.2314 44.9516 69.2314 44.2502 69.2314 43.5901C69.2314 42.7444 69.2314 41.713 69.2108 41.2591C70.9023 40.3515 73.6046 38.2887 76.1831 36.4322C77.0701 35.7927 77.9984 35.277 78.8648 34.8438L78.8235 34.72C77.6271 34.7819 76.3894 34.8026 75.0279 34.8026C72.0369 34.8026 70.6342 34.8232 69.2521 34.8438C69.2727 34.1837 69.2933 33.111 69.2933 32.5128C69.2933 31.8734 69.2933 31.0276 69.2521 30.2644H87.0335C87.0129 31.007 86.9922 31.6671 86.9922 32.3272C86.9922 33.0492 86.9922 34.3075 87.0335 34.9057C85.507 35.7514 83.3204 37.4636 80.8657 39.3407C79.7105 40.1452 78.7204 40.6609 77.7715 41.1148Z" fill="#0D121C"/>
<path d="M111.701 30.2644H117.374C116.157 33.9362 113.64 43.4045 113.042 45.7354C112.093 45.7148 110.752 45.6942 109.226 45.6942C107.204 45.6942 105.657 45.7148 105.079 45.7354C104.811 44.4771 104.192 41.7336 103.656 39.1138C103.45 37.9793 103.244 36.7003 103.079 35.5452H102.914C102.728 36.721 102.501 38.0618 102.253 39.1757C101.676 41.6098 101.016 44.3327 100.686 45.7354C99.9843 45.7354 98.5404 45.6942 97.2614 45.6942C95.1986 45.6942 93.9816 45.7148 93.3421 45.7354C92.5995 43.0332 90.2891 33.9568 88.9689 30.2644H95.9619C96.0856 31.3577 96.8489 35.6689 97.4471 38.5156C97.6327 39.4439 97.7978 40.3515 97.9628 41.0941H98.0866C98.2516 40.3309 98.4579 39.4232 98.6641 38.4744C99.2417 35.6277 100.067 31.7702 100.232 30.2644C101.057 30.285 103.037 30.3056 104.11 30.3056C105.1 30.3056 106.73 30.285 107.493 30.2644C107.679 31.6465 108.318 35.6277 108.999 38.5569C109.267 39.5676 109.432 40.4547 109.576 41.1766H109.7C109.824 40.434 109.968 39.5676 110.195 38.5569C110.773 35.6277 111.495 31.7702 111.701 30.2644Z" fill="#0D121C"/>
<path d="M139.693 37.773C139.693 43.2394 136.537 46.148 128.946 46.148C121.375 46.148 118.343 43.2394 118.343 37.773C118.343 32.2653 121.767 29.8518 128.967 29.8518C136.166 29.8518 139.693 32.2653 139.693 37.773ZM128.967 41.6305C131.834 41.6305 132.968 40.3721 132.968 37.8143C132.968 35.277 131.813 34.1425 128.967 34.1425C126.141 34.1425 124.965 35.2564 124.965 37.8143C124.965 40.3928 126.12 41.6305 128.967 41.6305Z" fill="#0D121C"/>
<path d="M163.449 37.773C163.449 43.2394 160.293 46.148 152.702 46.148C145.131 46.148 142.099 43.2394 142.099 37.773C142.099 32.2653 145.523 29.8518 152.722 29.8518C159.921 29.8518 163.449 32.2653 163.449 37.773ZM152.722 41.6305C155.59 41.6305 156.724 40.3721 156.724 37.8143C156.724 35.277 155.569 34.1425 152.722 34.1425C149.896 34.1425 148.72 35.2564 148.72 37.8143C148.72 40.3928 149.876 41.6305 152.722 41.6305Z" fill="#0D121C"/>
<path d="M178.644 30.2644H186.379C184.585 32.4509 181.532 36.5972 179.077 38.1237C180.459 38.6394 181.532 39.5883 182.481 40.8466C184.956 43.652 186.029 45.0753 186.627 45.7354H179.531C178.644 45.7354 178.252 45.5498 177.901 45.0135C176.622 43.4251 174.828 41.0529 173.342 39.8564H173.157C173.157 42.0224 173.177 43.9202 173.26 45.7354H166.618C166.7 43.3838 166.721 41.2798 166.721 37.9999C166.721 34.72 166.7 32.5747 166.618 30.2644H173.26C173.157 32.3684 173.157 34.6994 173.157 37.2779H173.301C174.044 36.4322 174.828 35.5864 175.508 34.7613C177.097 32.8016 177.963 31.3577 178.644 30.2644Z" fill="#0D121C"/>
<defs>
<filter id="filter0_i_19_2247" x="5.53491" y="17.5349" width="40.9299" height="40.9299" filterUnits="userSpaceOnUse" color-interpolation-filters="sRGB">
<feFlood flood-opacity="0" result="BackgroundImageFix"/>
<feBlend mode="normal" in="SourceGraphic" in2="BackgroundImageFix" result="shape"/>
<feColorMatrix in="SourceAlpha" type="matrix" values="0 0 0 0 0 0 0 0 0 0 0 0 0 0 0 0 0 0 127 0" result="hardAlpha"/>
<feOffset/>
<feGaussianBlur stdDeviation="2.03922"/>
<feComposite in2="hardAlpha" operator="arithmetic" k2="-1" k3="1"/>
<feColorMatrix type="matrix" values="0 0 0 0 0.278667 0 0 0 0 0 0 0 0 0 0.633333 0 0 0 1 0"/>
<feBlend mode="normal" in2="shape" result="effect1_innerShadow_19_2247"/>
</filter>
<radialGradient id="paint0_angular_19_2247" cx="0" cy="0" r="1" gradientUnits="userSpaceOnUse" gradientTransform="translate(26.9253 36.9822) rotate(115.362) scale(31.5379 39.2254)">
<stop stop-color="#FF61A8"/>
<stop offset="0.411458" stop-color="#6957FF"/>
<stop offset="0.59956" stop-color="#FFC83A"/>
<stop offset="0.755208" stop-color="#7F3FFF"/>
<stop offset="0.932292" stop-color="#FC00E3"/>
</radialGradient>
<radialGradient id="paint1_angular_19_2247" cx="0" cy="0" r="1" gradientUnits="userSpaceOnUse" gradientTransform="translate(26.7282 37.1988) rotate(115.362) scale(24.8239 30.8749)">
<stop stop-color="#FF61A8"/>
<stop offset="0.411458" stop-color="#6957FF"/>
<stop offset="0.59956" stop-color="#FFC83A"/>
<stop offset="0.755208" stop-color="#7F3FFF"/>
<stop offset="0.932292" stop-color="#FC00E3"/>
</radialGradient>
</defs>
</svg>
